<svg width="34" height="34" viewBox="0 0 34 34" fill="none" xmlns="http://www.w3.org/2000/svg">
<path d="M2.85791 15C1.75334 15 0.85791 15.8954 0.85791 17C0.85791 18.1046 1.75334 19 2.85791 19V15ZM31.1422 19C32.2468 19 33.1422 18.1046 33.1422 17C33.1422 15.8954 32.2468 15 31.1422 15V19ZM19 2.85786C19 1.7533 18.1046 0.857865 17 0.857865C15.8955 0.857865 15 1.7533 15 2.85786H19ZM15 31.1421C15 32.2467 15.8955 33.1421 17 33.1421C18.1046 33.1421 19 32.2467 19 31.1421H15ZM2.85791 19H17V15H2.85791V19ZM17 19H31.1422V15H17V19ZM19 17V2.85786H15V17H19ZM15 2.85786V31.1421H19V2.85786H15Z" fill="black"/>
</svg>
